# xmcd CD database file
#
# Track frame offsets:
#	150
#	10115
#	23626
#	34139
#	46352
#	60376
#	70498
#	80281
#	91316
#	103982
#	115761
#	129561
#	143731
#	162142
#	173276
#
# Disc length: 2429 seconds
#
# Revision: 0
# Processed by: cddbd v1.5.2PL0 Copyright (c) Steve Scherf et al.
# Submitted via: CDex 1.70beta2
#
DISCID=b6097b0f
DTITLE=Various Artist - The Country Box - 07
DYEAR=2007
DGENRE=Country
TTITLE0=Don Gibson - Lonesome Number One
TTITLE1=Jimmy Dean - Big Bad John
TTITLE2=Ferlin Husky - The Wings Of A Dove
TTITLE3=Stonewall Jackson - I Love You Because
TTITLE4=Billie Jo Spears - Mr Walker, It's All Over
TTITLE5=Glenn Yarborough - Baby, The Rain Must Fall
TTITLE6=Hank Locklin - Please Help Me I'm Falling
TTITLE7=Jean Shephard - A Satisfied Mind
TTITLE8=David Houston - My Elusive Dreams
TTITLE9=Connie Smith - Once A Day
TTITLE10=Porter Wagoner - Skid Row Joe
TTITLE11=Narvel Felts - Funny How Time Slips Away
TTITLE12=Lynn Anderson - Midnight Train To Georgia
TTITLE13=Johnny Paycheck - Tender Years
TTITLE14=Kitty Wells - I'll Reposess My Heart
EXTD=YEAR: 2007
EXTT0=
EXTT1=
EXTT2=
EXTT3=
EXTT4=
EXTT5=
EXTT6=
EXTT7=
EXTT8=
EXTT9=
EXTT10=
EXTT11=
EXTT12=
EXTT13=
EXTT14=
PLAYORDER=
